<svg xmlns="http://www.w3.org/2000/svg" width="603" height="486" viewBox="0 0 603 486"><g transform="translate(-39 -18.463)"><g transform="translate(39 18.463)" opacity="0.08"><circle cx="175" cy="175" r="175" fill="#54c2af"/><circle cx="175" cy="175" r="175" transform="translate(168 136)" fill="#0a3c54"/></g><g transform="translate(445 292.463)" opacity="0.16"><circle cx="2" cy="2" r="2" transform="translate(28)"/><circle cx="2" cy="2" r="2"/><circle cx="2" cy="2" r="2" transform="translate(28 28)"/><circle cx="2" cy="2" r="2" transform="translate(0 28)"/><circle cx="2" cy="2" r="2" transform="translate(28 56)"/><circle cx="2" cy="2" r="2" transform="translate(0 56)"/><circle cx="2" cy="2" r="2" transform="translate(28 84)"/><circle cx="2" cy="2" r="2" transform="translate(0 84)"/><circle cx="2" cy="2" r="2" transform="translate(28 112)"/><circle cx="2" cy="2" r="2" transform="translate(0 112)"/><circle cx="2" cy="2" r="2" transform="translate(28 140)"/><circle cx="2" cy="2" r="2" transform="translate(0 140)"/><circle cx="2" cy="2" r="2" transform="translate(53 140)"/><circle cx="2" cy="2" r="2" transform="translate(53 112)"/><circle cx="2" cy="2" r="2" transform="translate(53 84)"/><circle cx="2" cy="2" r="2" transform="translate(53 56)"/><circle cx="2" cy="2" r="2" transform="translate(53 28)"/><circle cx="2" cy="2" r="2" transform="translate(53)"/><circle cx="2" cy="2" r="2" transform="translate(81)"/><circle cx="2" cy="2" r="2" transform="translate(81 28)"/><circle cx="2" cy="2" r="2" transform="translate(81 56)"/><circle cx="2" cy="2" r="2" transform="translate(81 84)"/><circle cx="2" cy="2" r="2" transform="translate(81 112)"/><circle cx="2" cy="2" r="2" transform="translate(109 112)"/><circle cx="2" cy="2" r="2" transform="translate(109 84)"/><circle cx="2" cy="2" r="2" transform="translate(109 56)"/><circle cx="2" cy="2" r="2" transform="translate(109 28)"/><circle cx="2" cy="2" r="2" transform="translate(109)"/><circle cx="2" cy="2" r="2" transform="translate(137)"/><circle cx="2" cy="2" r="2" transform="translate(165)"/><circle cx="2" cy="2" r="2" transform="translate(193)"/><circle cx="2" cy="2" r="2" transform="translate(137 28)"/><circle cx="2" cy="2" r="2" transform="translate(165 28)"/><circle cx="2" cy="2" r="2" transform="translate(193 28)"/><circle cx="2" cy="2" r="2" transform="translate(137 56)"/><circle cx="2" cy="2" r="2" transform="translate(165 56)"/><circle cx="2" cy="2" r="2" transform="translate(193 56)"/><circle cx="2" cy="2" r="2" transform="translate(137 84)"/><circle cx="2" cy="2" r="2" transform="translate(165 84)"/><circle cx="2" cy="2" r="2" transform="translate(193 84)"/><circle cx="2" cy="2" r="2" transform="translate(137 112)"/><circle cx="2" cy="2" r="2" transform="translate(165 112)"/><circle cx="2" cy="2" r="2" transform="translate(193 112)"/><circle cx="2" cy="2" r="2" transform="translate(81 140)"/><circle cx="2" cy="2" r="2" transform="translate(109 140)"/><circle cx="2" cy="2" r="2" transform="translate(137 140)"/><circle cx="2" cy="2" r="2" transform="translate(165 140)"/><circle cx="2" cy="2" r="2" transform="translate(193 140)"/></g></g></svg>