<svg xmlns="http://www.w3.org/2000/svg" width="48" height="48" viewBox="0 0 48 48"><g transform="translate(-1111.107 -2257.107)"><circle cx="24" cy="24" r="24" transform="translate(1111.107 2257.107)" fill="#4f70b6"/><g transform="translate(1122.184 2269.983)"><g transform="translate(-0.615)"><path d="M24.089,6.436A1.238,1.238,0,0,1,25.2,5.069h0a1.247,1.247,0,0,1,1.376,1.11L28.5,20.716a1.247,1.247,0,0,1-1.11,1.376h0a1.247,1.247,0,0,1-1.376-1.11" transform="translate(-1.431 -0.419)" fill="#fff"/><rect width="21.012" height="3.329" rx="1.665" transform="translate(6.309 21.163) rotate(-74.18)" fill="#fff"/><rect width="20.972" height="3.323" rx="1.661" transform="matrix(0.411, -0.912, 0.912, 0.411, 0, 20.884)" fill="#fff"/><rect width="3.329" height="21.663" rx="1.665" transform="translate(14.817)" fill="#fff"/><rect width="3.329" height="21.663" rx="1.665" transform="translate(19.357)" fill="#fff"/></g></g></g></svg>