<svg xmlns="http://www.w3.org/2000/svg" width="32" height="32" viewBox="0 0 32 32"><g transform="translate(-261 -4243)"><circle cx="16" cy="16" r="16" transform="translate(261 4243)" fill="#54c2af"/><g transform="translate(265 4247)"><path d="M0,0H24V24H0Z" fill="none"/><path d="M8.649,10.574v4.909" fill="none" stroke="#fff" stroke-linecap="round" stroke-linejoin="round" stroke-width="1.6"/><path d="M11.92,15.483V12.619a2.045,2.045,0,0,1,4.09,0v2.864" fill="none" stroke="#fff" stroke-linecap="round" stroke-linejoin="round" stroke-width="1.6"/><path d="M8.647,7.608a.2.2,0,1,0,.206.2.205.205,0,0,0-.206-.2" fill="none" stroke="#fff" stroke-linecap="round" stroke-linejoin="round" stroke-width="1.6"/><path d="M19.071,4.929a10,10,0,1,1-14.142,0,10,10,0,0,1,14.142,0" fill="none" stroke="#fff" stroke-linecap="round" stroke-linejoin="round" stroke-width="1.6"/></g></g></svg>