<svg xmlns="http://www.w3.org/2000/svg" width="119.03" height="41.783" viewBox="0 0 119.03 41.783"><rect width="1.63" height="30.032" rx="0.815" transform="translate(78.563 0.361)" fill="#54c1af"/><rect width="2.171" height="36.12" rx="1.085" transform="translate(83.85)" fill="#54c1af"/><rect width="2.171" height="36.088" rx="1.085" transform="translate(106.223 0.027)" fill="#54c1af"/><rect width="1.63" height="29.995" rx="0.815" transform="translate(112.114 0.403)" fill="#54c1af"/><rect width="1.088" height="21.391" rx="0.544" transform="translate(117.942 3.376)" fill="#54c1af"/><rect width="1.088" height="21.401" rx="0.544" transform="translate(73.213 3.37)" fill="#54c1af"/><path d="M30.18,40.944V2.021a.849.849,0,0,1,.844-.849h.531c1.4,0,3.259,1.773,5.536,5.276C39.384,2.913,41.263,1.14,42.68,1.14h.531a.849.849,0,0,1,.849.849v38.97A1.359,1.359,0,0,1,42.7,42.318h0a1.359,1.359,0,0,1-1.354-1.359V5.843A.191.191,0,0,0,41,5.726a39.343,39.343,0,0,0-2.728,4.023l-.786,1.327a.441.441,0,0,1-.759,0l-.807-1.354a40.339,40.339,0,0,0-2.654-3.949.191.191,0,0,0-.345.117V40.922a1.359,1.359,0,0,1-1.359,1.359h0a1.359,1.359,0,0,1-1.385-1.338Z" transform="translate(59.052 -0.535)" fill="#54c1af"/><rect width="1.63" height="30.032" rx="0.815" transform="translate(78.563 0.361)" fill="#54c1af"/><rect width="2.171" height="36.12" rx="1.085" transform="translate(83.85)" fill="#54c1af"/><rect width="2.171" height="36.088" rx="1.085" transform="translate(106.223 0.027)" fill="#54c1af"/><rect width="1.63" height="29.995" rx="0.815" transform="translate(112.114 0.403)" fill="#54c1af"/><rect width="1.088" height="21.391" rx="0.544" transform="translate(117.942 3.376)" fill="#54c1af"/><rect width="1.088" height="21.401" rx="0.544" transform="translate(73.213 3.37)" fill="#54c1af"/><path d="M30.18,40.944V2.021a.849.849,0,0,1,.844-.849h.531c1.4,0,3.259,1.773,5.536,5.276C39.384,2.913,41.263,1.14,42.68,1.14h.531a.849.849,0,0,1,.849.849v38.97A1.359,1.359,0,0,1,42.7,42.318h0a1.359,1.359,0,0,1-1.354-1.359V5.843A.191.191,0,0,0,41,5.726a39.343,39.343,0,0,0-2.728,4.023l-.786,1.327a.441.441,0,0,1-.759,0l-.807-1.354a40.339,40.339,0,0,0-2.654-3.949.191.191,0,0,0-.345.117V40.922a1.359,1.359,0,0,1-1.359,1.359h0a1.359,1.359,0,0,1-1.385-1.338Z" transform="translate(59.052 -0.535)" fill="#54c1af"/><g transform="translate(0 3.37)"><path d="M172.657,58.317c-2.054-2.279-7.212-2.279-9.266,0-1.379,1.2-1.876,4.342-1.66,6.837a4.83,4.83,0,0,1-.178,1.435,2.7,2.7,0,0,1-.478.938,1.819,1.819,0,0,1-.666.5,2.034,2.034,0,0,1-.732.15h-1.782a3.986,3.986,0,0,1-2.185-.553,1.96,1.96,0,0,1-.8-1.7V58.664a1.407,1.407,0,1,0-2.814,0V66.4c0,1.247-.375,1.744-1.585,1.763h-2.682a3.817,3.817,0,0,1-2.157-.553,1.876,1.876,0,0,1-.825-1.7v-7.25a1.407,1.407,0,1,0-2.814,0V71.982c0,1.876-.891,2.814-2.7,2.814h-.76a1.294,1.294,0,1,0,0,2.589h1.032a1.053,1.053,0,0,0,.291,0,5.008,5.008,0,0,0,3.545-1.36,5.628,5.628,0,0,0,1.36-4.08v-2.26a3.339,3.339,0,0,0,2.654,1.069h3.5c1.763,0,2.9-.581,3.461-1.735a3.217,3.217,0,0,0,3.076,1.735h1.876c1.332,0,3-.263,3.808-1.623a4.858,4.858,0,0,0,2.016,1.407,8.657,8.657,0,0,0,5.384,0,4.98,4.98,0,0,0,1.979-1.276,5.683,5.683,0,0,0,1.257-2.223C174.721,64.582,174.355,59.789,172.657,58.317Zm-1.979,8.976c-.938,1.454-4.427,1.454-5.4,0a5.721,5.721,0,0,1-.844-3.48,5.937,5.937,0,0,1,.844-3.4c.938-1.641,4.427-1.641,5.4,0C171.8,61.834,171.795,66,170.678,67.292Z" transform="translate(-113.19 -48.291)" fill="#0a3c54"/><path d="M120.9,75a1.594,1.594,0,1,0,1.472,1.59A1.594,1.594,0,0,0,120.9,75Z" transform="translate(-112.081 -49.433)" fill="#0a3c54"/><path d="M125.813,75a1.594,1.594,0,1,0,1.472,1.59A1.594,1.594,0,0,0,125.813,75Z" transform="translate(-112.386 -49.433)" fill="#0a3c54"/><path d="M143.743,53.569h0a1.594,1.594,0,0,0,0-3.179h0a1.594,1.594,0,0,0,0,3.179Z" transform="translate(-113.5 -47.905)" fill="#0a3c54"/><path d="M154.432,53.569a1.594,1.594,0,1,0-1.472-1.59A1.594,1.594,0,0,0,154.432,53.569Z" transform="translate(-114.163 -47.905)" fill="#0a3c54"/><path d="M132.777,47.749a1.4,1.4,0,0,0-1.407,1.4v16.7A2.035,2.035,0,0,1,131,67.239a1.717,1.717,0,0,1-1.21.375h-2.495a3.658,3.658,0,0,1-2.167-.581,1.876,1.876,0,0,1-.807-1.669V58.047a1.407,1.407,0,1,0-2.814,0v7.8a2.035,2.035,0,0,1-.375,1.388,1.782,1.782,0,0,1-1.229.375h-3.892a1.679,1.679,0,0,1-1.21-.375,1.941,1.941,0,0,1-.375-1.388v-16.7a1.407,1.407,0,0,0-2.814,0V66.029a4.605,4.605,0,0,0,.938,3.17,3.752,3.752,0,0,0,2.982,1.022h4.886c1.744,0,2.879-.581,3.442-1.735a2.814,2.814,0,0,0,1.219,1.294,4.014,4.014,0,0,0,1.876.441h3.311a3.8,3.8,0,0,0,2.982-1.022,4.605,4.605,0,0,0,.938-3.17V49.147a1.388,1.388,0,0,0-1.407-1.4Z" transform="translate(-111.594 -47.74)" fill="#0a3c54"/></g></svg>