<svg xmlns="http://www.w3.org/2000/svg" width="40" height="40" viewBox="0 0 40 40"><g transform="translate(-534 -1510)"><circle cx="20" cy="20" r="20" transform="translate(534 1510)" fill="#0a3c54"/><g transform="translate(543 1518)"><path d="M0,0H24V24H0Z" fill="none"/><rect width="10" height="3" rx="1" transform="translate(6 6)" fill="none" stroke="#fff" stroke-linecap="round" stroke-linejoin="round" stroke-width="2"/><path d="M7.082,9l-2.6,2.968A6,6,0,0,0,3.634,18.6,4.337,4.337,0,0,0,7.512,21H14" fill="none" stroke="#fff" stroke-linecap="round" stroke-linejoin="round" stroke-width="2"/><path d="M7.409,6l-.8-1.541A1,1,0,0,1,7.5,3h7a1,1,0,0,1,.888,1.459L14.591,6" fill="none" stroke="#fff" stroke-linecap="round" stroke-linejoin="round" stroke-width="2"/><circle cx="5" cy="5" r="5" transform="translate(12 12)" fill="none" stroke="#fff" stroke-linecap="round" stroke-linejoin="round" stroke-width="2"/><path d="M18.681,16.01l-2.1,2.1L15.319,16.85" fill="none" stroke="#fff" stroke-linecap="round" stroke-linejoin="round" stroke-width="2"/><path d="M14.866,9l2.815,3.046" fill="none" stroke="#fff" stroke-linecap="round" stroke-linejoin="round" stroke-width="2"/></g></g></svg>