<svg xmlns="http://www.w3.org/2000/svg" width="40" height="40" viewBox="0 0 40 40"><g transform="translate(-534 -1510)"><circle cx="20" cy="20" r="20" transform="translate(534 1510)" fill="#0a3c54"/><g transform="translate(542 1518)"><path d="M0,0H24V24H0Z" fill="none"/><path d="M10,12l1.5,1.5,3-3" fill="none" stroke="#fff" stroke-linecap="round" stroke-linejoin="round" stroke-width="2"/><path d="M3.5,10.767A10.609,10.609,0,0,0,10.392,20.7l.03.01a4.5,4.5,0,0,0,3.156,0l.024-.01a10.627,10.627,0,0,0,6.9-9.95V7.03a2,2,0,0,0-1.4-1.909l-6.5-2.03a2,2,0,0,0-1.192,0L4.9,5.121a2,2,0,0,0-1.4,1.91Z" fill="none" stroke="#fff" stroke-linecap="round" stroke-linejoin="round" stroke-width="2"/></g></g></svg>