<svg xmlns="http://www.w3.org/2000/svg" width="48" height="48" viewBox="0 0 48 48"><g transform="translate(-1111.107 -2257.107)"><circle cx="24" cy="24" r="24" transform="translate(1111.107 2257.107)" fill="#74489c"/><g transform="translate(1119.472 2271.157)"><path d="M16.679,16.62a3.928,3.928,0,0,0-3.919,3.928.61.61,0,1,0,1.22,0,2.7,2.7,0,0,1,5.4,0,.61.61,0,1,0,1.22,0,3.928,3.928,0,0,0-3.919-3.928Z" transform="translate(-0.966 -1.258)" fill="#fff"/><path d="M22.1,17.992A6.119,6.119,0,0,0,10.33,20.367a.61.61,0,0,0,1.22,0,4.9,4.9,0,0,1,9.419-1.895.613.613,0,0,0,1.128-.481Z" transform="translate(-0.782 -1.077)" fill="#fff"/><path d="M22.86,20.18h0a.61.61,0,0,0-.61.619h0a.61.61,0,1,0,1.22,0h0a.619.619,0,0,0-.61-.619Z" transform="translate(-1.684 -1.527)" fill="#fff"/><path d="M17.324,11.505a.61.61,0,0,0-.86,0,.619.619,0,0,0-.185.434.582.582,0,0,0,.185.434.61.61,0,0,0,.86,0,.582.582,0,0,0,.185-.434.619.619,0,0,0-.185-.434Z" transform="translate(-1.232 -0.857)" fill="#fff"/><rect width="1.886" height="9.789" rx="0.943" transform="translate(14.724)" fill="#fff"/><rect width="8.402" height="1.886" rx="0.943" transform="translate(22.868 16)" fill="#fff"/><rect width="8.402" height="1.886" rx="0.943" transform="translate(0 16)" fill="#fff"/><rect width="12.275" height="1.886" rx="0.943" transform="translate(18.745 12.372) rotate(-45)" fill="#fff"/><rect width="1.886" height="12.275" rx="0.943" transform="translate(2.411 5.027) rotate(-45)" fill="#fff"/></g></g></svg>