<svg xmlns="http://www.w3.org/2000/svg" width="32" height="32" viewBox="0 0 32 32"><g transform="translate(-357 -4243)"><circle cx="16" cy="16" r="16" transform="translate(357 4243)" fill="#54c2af"/><g transform="translate(361 4247)"><path d="M0,0H24V24H0Z" fill="none"/><path d="M19.071,4.929a10,10,0,1,1-14.142,0,10,10,0,0,1,14.142,0" fill="none" stroke="#fff" stroke-linecap="round" stroke-linejoin="round" stroke-width="1.6"/><path d="M15.255,9.225a3.255,3.255,0,1,0-6.51,0C8.745,12.074,8.6,13.5,6,14.637c1.333.588,1.333.588,2,2,2,0,2.667,1.333,4,1.333s2-1.333,4-1.333c.667-1.412.667-1.412,2-2C15.4,13.5,15.255,12.073,15.255,9.225Z" fill="none" stroke="#fff" stroke-linecap="round" stroke-linejoin="round" stroke-width="1.6"/><path d="M6,14.637c2.667-1.412,2.667-2.745.667-4.745" fill="none" stroke="#fff" stroke-linecap="round" stroke-linejoin="round" stroke-width="1.6"/><path d="M18,14.637c-2.667-1.412-2.667-2.745-.667-4.745" fill="none" stroke="#fff" stroke-linecap="round" stroke-linejoin="round" stroke-width="1.6"/></g></g></svg>