<svg xmlns="http://www.w3.org/2000/svg" width="48" height="50.145" viewBox="0 0 48 50.145"><g transform="translate(-1111.107 -2257.107)"><circle cx="24" cy="24" r="24" transform="translate(1111.107 2257.107)" fill="#f5c45c"/><g transform="translate(1122.239 2268.22)"><g transform="translate(0 0)"><circle cx="0.98" cy="0.98" r="0.98" transform="translate(11.81 4.541)" fill="#fff"/><circle cx="0.98" cy="0.98" r="0.98" transform="translate(11.763 19.051)" fill="#fff"/><circle cx="0.98" cy="0.98" r="0.98" transform="translate(19.153 11.967)" fill="#fff"/><circle cx="0.98" cy="0.98" r="0.98" transform="translate(4.522 11.967)" fill="#fff"/><circle cx="0.98" cy="0.98" r="0.98" transform="translate(6.686 6.686)" fill="#fff"/><circle cx="0.98" cy="0.98" r="0.98" transform="translate(16.915 16.979)" fill="#fff"/><circle cx="0.98" cy="0.98" r="0.98" transform="translate(17.137 6.751)" fill="#fff"/><circle cx="0.98" cy="0.98" r="0.98" transform="translate(11.81 11.911)" fill="#fff"/><circle cx="0.98" cy="0.98" r="0.98" transform="translate(6.788 17.09)" fill="#fff"/><circle cx="1.637" cy="1.637" r="1.637" transform="translate(6.418 0.083)" fill="#fff"/><circle cx="1.637" cy="1.637" r="1.637" transform="translate(15.777 22.26)" fill="#fff"/><circle cx="1.637" cy="1.637" r="1.637" transform="translate(22.463 6.659)" fill="#fff"/><circle cx="1.637" cy="1.637" r="1.637" transform="translate(0.129 16.156)" fill="#fff"/><circle cx="1.637" cy="1.637" r="1.637" transform="translate(0 6.686)" fill="#fff"/><circle cx="1.637" cy="1.637" r="1.637" transform="translate(22.297 35.759)" fill="#fff"/><circle cx="1.637" cy="1.637" r="1.637" transform="translate(15.99)" fill="#fff"/><circle cx="1.637" cy="1.637" r="1.637" transform="translate(6.918 22.5)" fill="#fff"/><circle cx="1.637" cy="1.637" r="1.637" transform="translate(15.99)" fill="#fff"/><circle cx="1.637" cy="1.637" r="1.637" transform="translate(6.918 22.5)" fill="#fff"/><circle cx="0.564" cy="0.564" r="0.564" transform="translate(10.589 8.434)" fill="#fff"/><circle cx="0.564" cy="0.564" r="0.564" transform="translate(13.863 16.018)" fill="#fff"/><circle cx="0.564" cy="0.564" r="0.564" transform="translate(16.11 10.635)" fill="#fff"/><circle cx="0.564" cy="0.564" r="0.564" transform="translate(8.48 13.964)" fill="#fff"/><circle cx="0.564" cy="0.564" r="0.564" transform="translate(8.397 10.718)" fill="#fff"/><circle cx="0.564" cy="0.564" r="0.564" transform="translate(16.082 13.761)" fill="#fff"/><circle cx="0.564" cy="0.564" r="0.564" transform="translate(13.872 8.369)" fill="#fff"/><circle cx="0.564" cy="0.564" r="0.564" transform="translate(10.829 16.119)" fill="#fff"/><circle cx="0.324" cy="0.324" r="0.324" transform="translate(10.746 10.857)" fill="#fff"/><circle cx="0.324" cy="0.324" r="0.324" transform="translate(14.205 14.112)" fill="#fff"/><circle cx="0.324" cy="0.324" r="0.324" transform="translate(14.168 30.765)" fill="#fff"/><circle cx="0.324" cy="0.324" r="0.324" transform="translate(10.894 14.251)" fill="#fff"/><circle cx="0.324" cy="0.324" r="0.324" transform="translate(10.117 12.559)" fill="#fff"/><circle cx="0.324" cy="0.324" r="0.324" transform="translate(14.862 12.411)" fill="#fff"/><circle cx="0.324" cy="0.324" r="0.324" transform="translate(12.466 10.071)" fill="#fff"/><circle cx="0.324" cy="0.324" r="0.324" transform="translate(12.624 14.862)" fill="#fff"/></g></g></g></svg>