<svg xmlns="http://www.w3.org/2000/svg" width="40" height="40" viewBox="0 0 40 40"><g transform="translate(-534 -1510)"><path d="M20,0a20,20,0,0,1,0,40C8.954,40,0,20,0,20S8.954,0,20,0Z" transform="translate(534 1510)" fill="#0a3c54"/><g transform="translate(542 1518)"><path d="M0,0H24V24H0Z" fill="none"/><path d="M16,22a5,5,0,1,1,5-5,5,5,0,0,1-5,5" fill="none" stroke="#fff" stroke-linecap="round" stroke-linejoin="round" stroke-width="2"/><path d="M11.344,18.832,7.456,20.86A1.2,1.2,0,0,1,5.706,19.6l.868-5.023L2.9,11.018a1.2,1.2,0,0,1,.668-2.043l5.082-.733,2.27-4.574a1.21,1.21,0,0,1,2.164,0l2.274,4.574,5.082.731a1.2,1.2,0,0,1,.668,2.043l-2.075,2.007" fill="none" stroke="#fff" stroke-linecap="round" stroke-linejoin="round" stroke-width="2"/><path d="M18.222,15.889l-2.778,2.778L13.778,17" fill="none" stroke="#fff" stroke-linecap="round" stroke-linejoin="round" stroke-width="2"/></g></g></svg>