<svg xmlns="http://www.w3.org/2000/svg" width="48" height="48" viewBox="0 0 48 48"><g transform="translate(-1111.107 -2257.107)"><circle cx="24" cy="24" r="24" transform="translate(1111.107 2257.107)" fill="#df3b76"/><g transform="translate(1121.683 2267.198)"><g transform="translate(0.5 0.5)"><path d="M6.134,39.834a.561.561,0,0,0,.034.213.348.348,0,0,0,.107.14.32.32,0,0,0,.157.078.639.639,0,0,0,.185,0h.7a.348.348,0,0,0,.23-.056.157.157,0,0,0,.062-.14.179.179,0,0,0-.039-.123.4.4,0,0,0-.118-.09,1.593,1.593,0,0,0-.191-.084L7,39.688v-.034l.045-.112s0-.028.034,0l.179.073.168.062.163.05a.561.561,0,0,0,.163,0h.258a.056.056,0,0,1,0,.056.079.079,0,0,1,0,.073.118.118,0,0,1-.084,0H7.682a.325.325,0,0,1,.039.078.4.4,0,0,1,0,.118.51.51,0,0,1,0,.129.353.353,0,0,1-.073.112.359.359,0,0,1-.129.078.465.465,0,0,1-.191.034H6.594a.639.639,0,0,1-.46-.163A.561.561,0,0,1,6,39.851a.83.83,0,0,1,.056-.32.875.875,0,0,1,.129-.241h.039l.084.056v.034a1.032,1.032,0,0,0-.107.207.628.628,0,0,0-.067.247Zm.454,1.054V40.72h.174v.168H6.588Zm.359,0H6.919V40.72h.2v.168Z" transform="translate(-2.916 -17.54)" fill="#fff"/><path d="M9.328,40.285H9.255a.09.09,0,0,1,0-.062.1.1,0,0,1,0-.067h.359a.191.191,0,0,1,.084,0,.056.056,0,0,1,0,.056.079.079,0,0,1,0,.067.118.118,0,0,1-.084,0Z" transform="translate(-4.343 -17.919)" fill="#fff"/><path d="M9.8,39.112a.157.157,0,0,1-.084,0s-.028,0-.028-.062,0-.056.028-.067H10a.168.168,0,0,0,.112-.034.163.163,0,0,0,.034-.118v-.824l.028-.028h.1v.779a.673.673,0,0,1,0,.157.174.174,0,0,1-.05.107.2.2,0,0,1-.1.067.678.678,0,0,1-.168,0Zm.37-1.407a.027.027,0,0,1-.028-.028v-.168a.027.027,0,0,1,.028-.028h.112l.028.028v.168a.027.027,0,0,1-.028.028Z" transform="translate(-4.537 -16.745)" fill="#fff"/><path d="M11.714,40.077h-.028v-.1h.37a.336.336,0,0,0,.2-.05.241.241,0,0,0,.067-.2v-.14h-.32a.852.852,0,0,1-.213,0,.432.432,0,0,1-.163-.1.437.437,0,0,1-.107-.174.858.858,0,0,1-.034-.264.8.8,0,0,1,.039-.269.482.482,0,0,1,.107-.191.387.387,0,0,1,.157-.118.477.477,0,0,1,.2-.045.437.437,0,0,1,.37.151.712.712,0,0,1,.118.454v.712a.437.437,0,0,1-.09.314.364.364,0,0,1-.286.1Zm.28-1.576a.308.308,0,0,0-.252.118.561.561,0,0,0-.09.353.869.869,0,0,0,0,.185.258.258,0,0,0,.179.191.662.662,0,0,0,.157,0h.348v-.415a.622.622,0,0,0-.078-.336.275.275,0,0,0-.264-.1Z" transform="translate(-5.328 -17.161)" fill="#fff"/><path d="M14.069,39.133a.174.174,0,0,0,.073.157.3.3,0,0,0,.2.056h.084a.067.067,0,0,1,.028.056c0,.045,0,.067-.028.078h-.084a.689.689,0,0,1-.163,0,.191.191,0,0,1-.123-.073v.224a.437.437,0,0,1-.1.308.421.421,0,0,1-.308.107H13.57v-.1h.09a.235.235,0,0,0,.174-.062A.219.219,0,0,0,13.9,39.7V38.4l.028-.028h.1l.028.028Z" transform="translate(-6.242 -17.136)" fill="#fff"/><path d="M14.938,40.285h-.073a.09.09,0,0,1,0-.062.1.1,0,0,1,0-.067h.359a.191.191,0,0,1,.084,0,.056.056,0,0,1,.028.056.079.079,0,0,1-.028.067.118.118,0,0,1-.084,0Z" transform="translate(-6.808 -17.919)" fill="#fff"/><path d="M15.388,40.285h-.073a.09.09,0,0,1,0-.062.1.1,0,0,1,0-.067H15.7a.191.191,0,0,1,.084,0,.056.056,0,0,1,.028.056.079.079,0,0,1-.028.067.118.118,0,0,1-.084,0Z" transform="translate(-7.005 -17.919)" fill="#fff"/><path d="M16.415,38.742a.174.174,0,0,0,.078.151.3.3,0,0,0,.2.056h.084a.073.073,0,0,1,0,.062.067.067,0,0,1,0,.062.118.118,0,0,1-.084,0,.7.7,0,0,1-.2,0,.191.191,0,0,1-.123-.123.241.241,0,0,1-.09.107.269.269,0,0,1-.163.045h-.179a.135.135,0,0,1-.078,0v-.062a.067.067,0,0,1,0-.062.123.123,0,0,1,.078,0h.207a.185.185,0,0,0,.084,0s.034,0,.045-.045a.129.129,0,0,0,0-.073.561.561,0,0,0,0-.1v-.751l.028-.028h.1a.027.027,0,0,1,.028.028ZM16.078,37.7a.027.027,0,0,1-.028-.028v-.168l.028-.028h.146l.028.028v.168a.027.027,0,0,1-.028.028Zm.359,0V37.48h.146l.028.028v.168a.027.027,0,0,1-.028.028Z" transform="translate(-7.242 -16.745)" fill="#fff"/><path d="M17.308,40.285h-.073a.09.09,0,0,1,0-.062.1.1,0,0,1,0-.067h.359a.168.168,0,0,1,.084,0,.056.056,0,0,1,0,.056.078.078,0,0,1,0,.067.118.118,0,0,1-.084,0Z" transform="translate(-7.849 -17.918)" fill="#fff"/><path d="M17.8,40.285h-.073a.09.09,0,0,1,0-.062.1.1,0,0,1,0-.067h.359a.168.168,0,0,1,.084,0,.056.056,0,0,1,.028.056.079.079,0,0,1-.028.067.118.118,0,0,1-.084,0Z" transform="translate(-8.064 -17.918)" fill="#fff"/><path d="M19.012,37.816a.69.69,0,0,1,.2.028.454.454,0,0,1,.151.09.348.348,0,0,1,.1.146.561.561,0,0,1,.034.213v.286a.179.179,0,0,0,.073.157.314.314,0,0,0,.2.056h0a.157.157,0,0,1,.084,0v.123a.2.2,0,0,1-.09,0,.594.594,0,0,1-.207-.034.185.185,0,0,1-.129-.129.213.213,0,0,1-.118.123.415.415,0,0,1-.2.039h-.824c-.073,0-.112,0-.112-.078s0-.062.028-.067a.168.168,0,0,1,.084,0h.791a.437.437,0,0,0,.135,0,.123.123,0,0,0,.078-.045.191.191,0,0,0,.034-.09.808.808,0,0,0,0-.135v-.219a.3.3,0,0,0-.084-.236.4.4,0,0,0-.269-.078h-.5v-.129l.622-.729h.034l.084.067v.039l-.561.634Z" transform="translate(-8.258 -16.582)" fill="#fff"/><path d="M20.938,40.285h-.073a.09.09,0,0,1,0-.062.1.1,0,0,1,0-.067h.353a.168.168,0,0,1,.084,0s.028,0,.028.056,0,.056-.028.067a.118.118,0,0,1-.084,0Z" transform="translate(-9.444 -17.918)" fill="#fff"/><path d="M21.459,40.285h-.073a.09.09,0,0,1,0-.062.163.163,0,0,1,0-.067h.342a.168.168,0,0,1,.084,0v.123a.118.118,0,0,1-.084,0Z" transform="translate(-9.672 -17.918)" fill="#fff"/><path d="M21.912,38.9a.185.185,0,0,1-.084,0s-.028,0-.028-.062a.078.078,0,0,1,.028-.067h.292a.13.13,0,0,0,.146-.151V37h.151v1.525a1.29,1.29,0,0,1,0,.157.269.269,0,0,1-.05.107.247.247,0,0,1-.1.067.628.628,0,0,1-.163,0Z" transform="translate(-9.857 -16.534)" fill="#fff"/><path d="M24.323,38.744h.364a.135.135,0,0,0,.1-.034.163.163,0,0,0,.034-.118V37h.107v1.525a.4.4,0,0,1-.073.275.348.348,0,0,1-.252.078H23.56v-.1h.606V37.415l.028-.028h.1l.028.028Zm-.247.8a.51.51,0,0,1-.039-.079.3.3,0,0,1,0-.107.5.5,0,0,1,0-.084.308.308,0,0,1,.045-.084.247.247,0,0,1,.084-.067.241.241,0,0,1,.135,0,.3.3,0,0,1,.123,0,.264.264,0,0,1,.1.078h0l-.045.039h-.028a.2.2,0,0,0-.078,0,.185.185,0,0,0-.084,0,.135.135,0,0,0-.112.05.191.191,0,0,0-.039.123.219.219,0,0,0,0,.1.264.264,0,0,0,.062.073h.292v.067h-.561V39.59Z" transform="translate(-10.63 -16.534)" fill="#fff"/><path d="M26.981,38.873H26.83V37h.151Z" transform="translate(-12.067 -16.534)" fill="#fff"/><path d="M29.191,39.133a.174.174,0,0,0,.078.157.292.292,0,0,0,.2.056h.084a.056.056,0,0,1,.028.056v.078h-.09a.723.723,0,0,1-.163,0,.219.219,0,0,1-.123-.073v.224a.432.432,0,0,1-.1.308.421.421,0,0,1-.308.107H28.72v-.1h.1a.235.235,0,0,0,.174-.062.241.241,0,0,0,.062-.179V38.4l.028-.028h.1V38.4Z" transform="translate(-12.897 -17.136)" fill="#fff"/><path d="M30.008,40.285h-.073a.09.09,0,0,1,0-.062.1.1,0,0,1,0-.067h.353a.168.168,0,0,1,.084,0s.028,0,.028.056v.067a.14.14,0,0,1-.09,0Z" transform="translate(-13.428 -17.918)" fill="#fff"/><path d="M30.5,40.285h-.073a.09.09,0,0,1,0-.062.1.1,0,0,1,0-.067h.353a.168.168,0,0,1,.084,0s.028,0,.028.056,0,.056-.028.067a.118.118,0,0,1-.084,0Z" transform="translate(-13.643 -17.918)" fill="#fff"/><path d="M32.229,39.111a.157.157,0,0,0,.062.14.28.28,0,0,0,.174.05h.129a.079.079,0,0,1,0,.067v.062a.157.157,0,0,1-.084,0,.561.561,0,0,1-.2-.034.2.2,0,0,1-.129-.123.241.241,0,0,1-.118.118.415.415,0,0,1-.2.039h-.9c-.073,0-.112,0-.112-.073v-.073a.168.168,0,0,1,.084,0h.847a.437.437,0,0,0,.135,0,.1.1,0,0,0,.073-.05.118.118,0,0,0,.034-.09.88.88,0,0,0,0-.14,1.525,1.525,0,0,0,0-.235.561.561,0,0,0-.073-.179.415.415,0,0,0-.129-.112.561.561,0,0,0-.2-.039.471.471,0,0,0-.353.157h-.039l-.073-.067v-.039a.611.611,0,0,1,.185-.151.561.561,0,0,1,.292-.067.634.634,0,0,1,.3.062.46.46,0,0,1,.179.163.611.611,0,0,1,.09.224,1.345,1.345,0,0,1,.028.258Zm-.634.8v-.224h.146a.027.027,0,0,1,.028.028v.168a.027.027,0,0,1-.028.028Z" transform="translate(-13.832 -17.092)" fill="#fff"/><path d="M33.748,40.285h-.073a.09.09,0,0,1,0-.062.1.1,0,0,1,0-.067h.359a.191.191,0,0,1,.084,0,.056.056,0,0,1,.028.056.078.078,0,0,1-.028.067.118.118,0,0,1-.084,0Z" transform="translate(-15.071 -17.919)" fill="#fff"/><path d="M34.745,38.742a.174.174,0,0,0,.073.157.3.3,0,0,0,.2.056H35.1a.073.073,0,0,1,0,.062.067.067,0,0,1,0,.062h-.084a.7.7,0,0,1-.2,0,.191.191,0,0,1-.123-.123.241.241,0,0,1-.09.107.269.269,0,0,1-.163.045h-.224a.135.135,0,0,1-.078,0s0,0,0-.062a.067.067,0,0,1,0-.062.123.123,0,0,1,.078,0h.207a.185.185,0,0,0,.084,0s.034,0,.045-.045a.129.129,0,0,0,0-.073.56.56,0,0,0,0-.1v-.785h.1v.028ZM34.4,37.7V37.48h.146V37.7Zm.359,0V37.48h.146V37.7Z" transform="translate(-15.272 -16.745)" fill="#fff"/><path d="M35.679,40.285h-.073a.09.09,0,0,1,0-.062v-.067h.359a.168.168,0,0,1,.084,0,.056.056,0,0,1,0,.056.079.079,0,0,1,0,.067.118.118,0,0,1-.084,0Z" transform="translate(-15.919 -17.918)" fill="#fff"/><path d="M37.479,39.059a.387.387,0,0,0,0,.123.224.224,0,0,0,.039.073.09.09,0,0,0,.062.039h.146a.146.146,0,0,1,.078,0,.124.124,0,0,1,.028.062v.062a.2.2,0,0,1-.09,0H37.7a.465.465,0,0,1-.179-.034.219.219,0,0,1-.129-.107.432.432,0,0,1-.163.123.7.7,0,0,1-.224.034.723.723,0,0,1-.224-.034.359.359,0,0,1-.163-.123.235.235,0,0,1-.118.118.656.656,0,0,1-.151,0h-.163a.157.157,0,0,1-.084,0v-.129a.168.168,0,0,1,.084,0H36.4a.14.14,0,0,0,.056-.045.23.23,0,0,0,.045-.073.387.387,0,0,0,0-.123v-.118c0-.421.163-.628.493-.628a.454.454,0,0,1,.37.151.667.667,0,0,1,.129.449v.09C37.485,39.008,37.485,39.042,37.479,39.059Zm-.488-.622a.269.269,0,0,0-.252.123.594.594,0,0,0-.079.325.561.561,0,0,0,.079.331.286.286,0,0,0,.252.107.3.3,0,0,0,.258-.107.561.561,0,0,0,.079-.331.606.606,0,0,0-.079-.325.286.286,0,0,0-.258-.123Z" transform="translate(-16.139 -17.096)" fill="#fff"/><path d="M38.938,40.285h-.073a.09.09,0,0,1,0-.062.1.1,0,0,1,0-.067h.359a.168.168,0,0,1,.084,0,.056.056,0,0,1,.028.056.079.079,0,0,1-.028.067.118.118,0,0,1-.084,0Z" transform="translate(-17.351 -17.918)" fill="#fff"/><path d="M39.412,38.9a.157.157,0,0,1-.084,0s-.028,0-.028-.062,0-.056.028-.067h.286a.168.168,0,0,0,.112-.034.163.163,0,0,0,.034-.118V37h.129v1.525a.673.673,0,0,1,0,.157.174.174,0,0,1-.05.107.2.2,0,0,1-.1.067.679.679,0,0,1-.168,0Z" transform="translate(-17.544 -16.534)" fill="#fff"/><path d="M41.3,38.873H41.15V37H41.3Z" transform="translate(-18.357 -16.534)" fill="#fff"/><text transform="translate(2.512 18.627) rotate(0.02)" fill="#fff" font-size="8" font-family="SegoeUI, Segoe UI"><tspan x="0" y="0">Store</tspan></text><rect width="25.849" height="26.819" rx="1.8" fill="none" stroke="#fff" stroke-miterlimit="10" stroke-width="1"/><text transform="translate(24.174 10.409)" fill="#fff" font-size="6" font-family="SegoeUI, Segoe UI"><tspan x="-21.961" y="0">Manzilia</tspan></text></g></g></g></svg>