<svg xmlns="http://www.w3.org/2000/svg" width="48" height="48" viewBox="0 0 48 48"><g transform="translate(-1111.107 -2257.107)"><circle cx="24" cy="24" r="24" transform="translate(1111.107 2257.107)" fill="#f69267"/><g transform="translate(1122.479 2272.481)"><g transform="translate(0 0)"><path d="M1.345,2.691H23.91A1.345,1.345,0,0,0,23.91,0H1.345a1.345,1.345,0,1,0,0,2.691Z" transform="translate(0 0)" fill="#fff"/><path d="M23.91,4.5H1.345a1.345,1.345,0,1,0,0,2.691H23.91a1.345,1.345,0,0,0,0-2.691Z" transform="translate(0 -0.644)" fill="#fff"/><path d="M23.91,9H1.345a1.345,1.345,0,1,0,0,2.691H23.91A1.345,1.345,0,0,0,23.91,9Z" transform="translate(0 -1.287)" fill="#fff"/><path d="M23.91,13.5H1.345a1.345,1.345,0,1,0,0,2.691h9.23L9.127,17.639A.9.9,0,1,0,10.4,18.908l2.228-2.228,2.237,2.228a.894.894,0,1,0,1.26-1.268l-1.448-1.448H23.91a1.345,1.345,0,0,0,0-2.691Z" transform="translate(0 -1.931)" fill="#fff"/></g></g></g></svg>