<svg xmlns="http://www.w3.org/2000/svg" width="32" height="32" viewBox="0 0 32 32"><g transform="translate(-213 -4243)"><circle cx="16" cy="16" r="16" transform="translate(213 4243)" fill="#54c2af"/><g transform="translate(217 4247)"><path d="M0,0H24V24H0Z" fill="none"/><path d="M19.071,4.929a10,10,0,1,1-14.142,0,10,10,0,0,1,14.142,0" fill="none" stroke="#fff" stroke-linecap="round" stroke-linejoin="round" stroke-width="1.6"/><path d="M17.3,10.733c0,4.2-2.4,7.2-6.6,7.2a4.68,4.68,0,0,1-4.2-2.4m0,0c.019,0,1.8-.6,1.8-.6a5.554,5.554,0,0,1-.6-7.2,6.067,6.067,0,0,0,3.6,3,2.921,2.921,0,0,1,3-3,2.612,2.612,0,0,1,2.4,1.2h1.8l-1.2,1.8" fill="none" stroke="#fff" stroke-linecap="round" stroke-linejoin="round" stroke-width="1.6"/></g></g></svg>