<svg xmlns="http://www.w3.org/2000/svg" width="32" height="32" viewBox="0 0 32 32"><g transform="translate(-309 -4243)"><circle cx="16" cy="16" r="16" transform="translate(309 4243)" fill="#54c2af"/><g transform="translate(313 4247)"><path d="M0,0H24V24H0Z" fill="none"/><path d="M19.071,4.929a10,10,0,1,1-14.142,0,10,10,0,0,1,14.142,0" fill="none" stroke="#fff" stroke-linecap="round" stroke-linejoin="round" stroke-width="1.6"/><path d="M17.75,8.624a1.653,1.653,0,0,0-1.061-1.241A30.858,30.858,0,0,0,12,7.091a30.853,30.853,0,0,0-4.688.292A1.652,1.652,0,0,0,6.25,8.624,21.326,21.326,0,0,0,6,12a21.326,21.326,0,0,0,.25,3.376,1.653,1.653,0,0,0,1.061,1.241A30.871,30.871,0,0,0,12,16.909a30.84,30.84,0,0,0,4.688-.292,1.652,1.652,0,0,0,1.061-1.241A21.243,21.243,0,0,0,18,12a21.326,21.326,0,0,0-.25-3.376Z" fill="none" stroke="#fff" stroke-linecap="round" stroke-linejoin="round" stroke-width="1.6"/><path d="M10.577,14.273,14.514,12,10.578,9.727v4.546Z" fill="none" stroke="#fff" stroke-linecap="round" stroke-linejoin="round" stroke-width="1.6"/></g></g></svg>